<svg xmlns="http://www.w3.org/2000/svg" viewBox="0 0 150 150">
<!-- SVG created with Arrow, by QuiverAI (https://quiver.ai) -->
  <style type="text/css">.cls-0 {fill:#B3B2B3;}
.cls-1 {fill:#171247;}
.cls-2 {fill:#7850E2;}
.cls-3 {fill:#191449;}
.cls-4 {fill:#C0BEBF;}
.cls-5 {fill:#7B50F7;}
.cls-6 {fill:#201959;}
.cls-7 {fill:url(#SVGID_1_);}
.cls-8 {fill:#5836BF;}
.cls-9 {fill:#8963FF;}
.cls-10 {fill:#453087;}
.cls-11 {fill:#C68A72;}
.cls-12 {fill:#F7AF94;}
.cls-13 {fill:#404444;}
.cls-14 {fill:#C0BFC0;}
.cls-15 {fill:#F7AF95;}
.cls-16 {fill:#E89F8B;}
.cls-17 {fill:#FFFFF6;}
.cls-18 {fill:#FEFDF8;}
.cls-19 {fill:#FEFEF8;}
.cls-20 {fill:#EB9981;}
.cls-21 {fill:#999999;}
.cls-22 {fill:none;stroke:#999999;stroke-width:0.25;stroke-miterlimit:10;}
.cls-23 {fill:#2B2265;}
.cls-24 {fill:#C78A72;}
.cls-25 {fill:#171438;}</style>
  <path class="cls-0" d="m147.2 49.1-1.8-10.1c-5.4-5-16.4-10.9-24.2-13.7-2.2-0.8-10.2-3.1-10.9-3.6l-1.6-0.2s-11.5 3.2-13.1 3.6-9.5 2.1-12 2.8-16.4 5.5-26.7 11.8c-6.7 4-15.5 11.2-24.8 19.7-0.8-0.9-2.4-2.4-3.1-2.4-2.9-0.1-2.9 3.5-0.8 6.7l-4.8 5.7c-6.9 4.6-14.5 9.6-18.1 14.7-1.9 2.6-0.8 7.5-0.8 7.5l1.4 8.5 46.5 26.5 0.2 0.1-0.1-0.1h0.1s0.3-5.7 0.8-8c1.5-6.5 7.7-13.8 12.8-14.2s6 4.5 5.4 11.9l50.3-29.2 0.3-5 18.2-7s5.5-6.1 7.1-8.5c0.8-1.2 0.5-1.7 1.1-7.7 0.4-2.4-1-6.4-1.4-9.8z"/>
  <path class="cls-1" d="m52.7 125.5c1.8 0.6 4.4 2.7 6.8 2.8 4 0 8.8-3.8 10.6-10.7 1.9-6.7-3.4-12.5-6.8-12-3.3 0.6-8.7 6.1-9.9 13l-0.7 6.9z"/>
  <path class="cls-3" d="m121.9 86.1 3.5 1.7 3.5-8.9 10.5-3.5c0.9-5.4-1-10-5.3-9.8-4.1 0.1-11 6.1-11.7 13.3l-0.5 7.2z"/>
  <path class="cls-1" d="m136.5 65.6c-3.7-0.9-7.9 2.2-11 6.5-3 4.3-4 13.5 0.5 16.3 0.9 0.5 2.5 0.5 3.6 0.2 3.5-0.9 8.5-5.7 10.1-13.1 1.2-5.6-0.8-9.3-3.2-9.9z"/>
  <path class="cls-5" d="m135.1 71.1c-2.4-1.2-5.7 0.2-7.6 4-2 3.9-2.4 9 0.4 10.6 2.1 1.2 5.5-1.1 7.5-3.7 2.3-3.3 3.5-9.5-0.3-10.9z"/>
  <path class="cls-5" d="m66 110.6c-2.4-1-5.9 1.8-7.6 5.1-1.8 4-2 8.3 0.7 9.3 2.5 0.9 7.6-2.5 9-7.1 0-2.3-0.2-6.3-2.1-7.3z"/>
  <path class="cls-0" d="m2.7 90.1c-0.7 1-1 1.8-1.1 3.4-0.2 2.6 0 8.1 0 8.1-0.7 0.8 0 5.9 2 11l24.1 13c1.3 0.8 11.9 2.1 16 2.2 1.4 0 8.8-0.9 8.8-1.2-3.4-2.9-11.5-9.5-20.8-11.6-10.6-1.5-22.1-8.5-24.1-10.6l-4.9-14.3z"/>
  <linearGradient id="SVGID_1_" x1="49.11" x2="29.95" y1="102.5" y2="80.89" gradientUnits="userSpaceOnUse">
    <stop stop-color="#D7D4D5" offset="0"/>
    <stop stop-color="#B3B2B3" offset="1"/>
  </linearGradient>
  <path class="cls-7" d="m30.1 108.6c4.6-3.6 20-10.5 37-17.5l-0.5-1.2-60.1-5.4c-2.4 2.4-2.4 3.9-1 9l1.4 3.6c5.8 5 17.7 10 22.8 12.4l0.4-0.9z"/>
  <path class="cls-5" d="m6.7 95.1 0.9 7.4c2.9 2.5 14 8.9 17.5 10.5l4.6-3.4c-5.2-1.2-17.7-5.9-22.8-12.2l-0.2-2.3z"/>
  <path class="cls-19" d="m2.7 90-0.1 2.4 0.8 3.3c1.3-0.2 2 1.4 2.8 2.9l-0.3-5c-0.8-3-1.8-6.1-1-8.5l-2.2 4.9z"/>
  <path class="cls-18" d="m31.1 109.6-2.6 3.1 6.2 2.4h8.8c1-0.2 3.5-0.7 4.2-1.7l3.4-4.8c0.8-1 0.5-1.5-0.5-1l-5.5 2s-8.6 0.8-14 0z"/>
  <path class="cls-3" d="m2.9 101.1c-0.4 0.3 0.1 4.8 2.2 10.4l22.9 12 15.9 1.4-1.4-4.3-18.6-2.5-17.5-9.7-3.5-7.3z"/>
  <path class="cls-5" d="m25.3 118.5 2.7 4.9 2.6 0.2-2.2-4.5-3.1-0.6z"/>
  <path class="cls-5" d="m5.1 111.6 2.3-2.6-1.4-1.1-0.9 3.5v0.2z"/>
  <path class="cls-0" d="m27.7 123.5v0.6s15.4 2.3 16.2 2.3c0.5 0 0-1.5 0-1.5l-16.2-1.4z"/>
  <path class="cls-5" d="m71.6 116.2 50.3-29.2 0.5-5-8 4.1-42.7 28.5-0.1 1.6z"/>
  <path class="cls-5" d="m146 42.4 0.1 2.7-3.7 5c-0.4 0.5 0.5 0.9 1.5 1.8l3.8-2.3-0.2-4.2-1.5-3z"/>
  <linearGradient id="SVGID_00000052095718986563874710000003265719083297886914_" x1="48.3" x2="118.4" y1="45.9" y2="45.9" gradientUnits="userSpaceOnUse">
    <stop stop-color="#6239C4" offset="0"/>
    <stop stop-color="#7B50F7" offset="1"/>
  </linearGradient>
  <path d="m48.5 46.4c-0.4 0.3-0.1 0.5 0 0.5l7 4.7 25.5 13c8.4-7.6 23.1-17 37.4-21.2-4.3-4.4-21-12.8-32.9-15.5-6.4 0.5-25.5 9.1-37 18v0.5z" fill="url(#SVGID_00000052095718986563874710000003265719083297886914_)"/>
  <path class="cls-6" d="m99.2 24.7-13.7 3.2c9 1.5 27 9.6 32.6 15.3l17.6-0.8c-8.3-6.4-22-13-36.5-17.7z"/>
  <linearGradient id="SVGID_00000070115844955695760780000012610336213895671039_" x1="24.7" x2="81.6" y1="67.15" y2="67.15" gradientUnits="userSpaceOnUse">
    <stop stop-color="#5633BF" offset="0"/>
    <stop stop-color="#7850E2" offset="1"/>
  </linearGradient>
  <path d="m53.4 52.1-28.7 17.3 3.8 5c7.9 7.6 25.6 13.3 36.4 15.7h2.3l-0.6-1 5-8-4.6-25.7-13.6-3.3z" fill="url(#SVGID_00000070115844955695760780000012610336213895671039_)"/>
  <path class="cls-3" d="m29.9 67.4 23.7-13.5 13.5 5.7-5 18.4c-2.4-0.3-4.6 0-4.6 0-2.8-3-6.6-4.1-14.5-6.5l-13.1-4.1z"/>
  <path class="cls-4" d="m63.2 74.9 3.9-15.3h0.1l2.5 0.9 6.9 3-0.1 3.6 1.2 0.5-8.1 5.1-4.5 1.9-1.9 0.3z"/>
  <path class="cls-14" d="m65.5 76.4c2.1 0.2 5.6 0.2 8.4-2.5l4.6-6.4c-2.8 0.5-7.4 4.4-8.9 5.2l-4.5 1.9 0.4 1.8z"/>
  <path class="cls-13" d="m43 71.5 5-1.5h0.7c0.4 1.4 2.4 3.4 4.7 3.5 2 0.9 4.7 1 5.6 0.4-0.5 1.7-2.1 3-2.6 3.2-1.8-1.2-6.7-3.6-13.4-5.6z"/>
  <path class="cls-15" d="m41.1 66.1 4.6-5 2.7 2.3-6 3.6c0 1.4-0.9 1.9-0.9 1.9l-1.9 0.6c-1.5-1.1-0.5-3 1.5-3.4z"/>
  <path class="cls-14" d="m53 55-7.3 6.1 2.7 2.4 2.1-1.5c0.4-0.3 0.2 0.5-0.1 3-0.4 2.9-2.3 4.7-2.4 5 0.9 2.5 3.1 3.1 3.6 3.4l7.5-1.3 2.8-2 0.2-2.4s0.3-3.6 0.1-6.3c-0.3-2.4-2.7-4-4.1-5l-3.7-1.8-1.4 0.4z"/>
  <path class="cls-2" d="m70.1 88.1-0.2 2.5 5.2-2.5c-1.7-1 0.4-2.5 2-3.7l-2-1.7 2.4-6.7-4.9 6.6-2.5 5.5z"/>
  <path class="cls-8" d="m70.1 84.6h-1l9.3-16.5v-0.7l2-1.9 1.2-0.1c-2.5 3.5-11 17.2-11.5 19.2z"/>
  <path class="cls-4" d="m69.4 84.6h-0.3l9.3-16.5v-0.7l0.5 0.1v0.6l-9.5 16.5z"/>
  <path class="cls-0" d="m69.1 88.1h1c2.8-6.6 9.3-17.2 12.8-21.7 4.5-5.5 19.7-14.3 29.7-18.3 3.9-1.6 10.1-3 16.8-2.4 0 1.4-1.5 9.3-2.2 9.8-1.5 1-46.1 29.1-46.1 29.1l-2.7-0.7-3.3 2.2-6 2z"/>
  <linearGradient id="SVGID_00000115503975727146181080000009450261540236550228_" x1="70.1" x2="129.4" y1="67.15" y2="67.15" gradientUnits="userSpaceOnUse">
    <stop stop-color="#1B1454" offset="0"/>
    <stop stop-color="#5836BF" offset="1"/>
  </linearGradient>
  <path d="m70.1 87.9-0.2 2.7c1.5-0.7 11.2-6 11.2-6l46.3-29.5c0.6-1.5 2-9.4 2-9.4-2.8-0.6-9.4-0.2-13.7 0.9-6.6 1.8-25.3 10-32 16.5-4.1 4-12.1 18.9-13.6 24.8z" fill="url(#SVGID_00000115503975727146181080000009450261540236550228_)"/>
  <linearGradient id="SVGID_00000080196242830572298330000015096775138916472142_" x1="70.1" x2="127.9" y1="67.9" y2="67.9" gradientUnits="userSpaceOnUse">
    <stop stop-color="#1F1952" offset="0"/>
    <stop stop-color="#7850F7" offset="1"/>
  </linearGradient>
  <path d="m70.1 88-0.2 2.6 11.2-6 44.9-30 2-8c-4-0.2-10.3 0.1-13.4 1.1-5 1.4-18.2 6.4-28.2 14.3-4.8 3.9-13.7 18.9-16.3 26z" fill="url(#SVGID_00000080196242830572298330000015096775138916472142_)"/>
  <path class="cls-9" d="m90.4 62.1-0.3 4.4c1.3 0.9 2.3 3.1 1.3 6.5l-0.8 4-3 1.7 1.1-7.3c0.2-1.8-0.7-3.7-1.3-4v-3.9l-5.5 4.9-0.9 1.7-4.9 8.9-1 3.7 3.3 1.2 6-3 13.3-7.5-0.3-6.3-0.3-9-6.7 4z"/>
  <path class="cls-9" d="m100.7 55-0.6 5.4 2.3 10.5 13-8.4-0.3-14.8-7.5 3.2-6.9 4.1z"/>
  <path class="cls-5" d="m115.1 47.7-0.4 4.8 0.8 0.6-0.1 9.4 10.6-7.9 2-8-8.4 0.3-4.5 0.8z"/>
  <path class="cls-2" d="m75.1 82.7 0.5 1.9 2.3-0.7 6.5-3 1.6-6.8c0.7-3.7-2.9-6.1-3.9-5.7l-6 10.6-1 3.7z"/>
  <path class="cls-10" d="m96.7 57.4 1 16.2 4.7-2.7-1.8-16.4-3.9 2.9z"/>
  <path class="cls-6" d="m115.5 53c1.4 0.6 1.1 5.1-0.1 9.5l3-2.5c1-6.9 0-9.1-2.9-7z"/>
  <path class="cls-3" d="m90.6 63c0.8 0.9 1.8 0.9 2.8 0.4s3-1.3 4-1.2l-0.3-2.8c-1.7 1.1-3.7 1.6-6 2.2l-0.5 0.4v1z"/>
  <path class="cls-3" d="m81.1 73.6-2.1 1.8 2.6-6.3-5.5 9.8-1 3.8 1.3-2.7 4-1 0.7-5.4z"/>
  <path class="cls-5" d="m74.1 82.7h1l0.5 1.9-1.5-1.9z"/>
  <path class="cls-2" d="m80.1 83.5-1.1 0.6 1.1 0.3 7-3.8 0.5-1.6-3.2 1.9-4.3 2.6z"/>
  <path class="cls-15" d="m76.6 63.5 0.3 2.9 1.5 1.6 2-2.5 1.2-0.1-5-1.9z"/>
  <path class="cls-12" d="m53.1 51.4 0.9 2.6 1.1 1.4c0 1.7 1.5 3.2 3.3 1.2l-0.3-2.7-4.9-3.3-0.1 0.8z"/>
  <path class="cls-2" d="m24.7 69.4 3.8 5c6.2 6.2 24.4 13.5 37.7 15.7l3.2-5.1-0.9-2.4-1.8-2.2-4.2-2.4-5 0.1c-3-3.1-7.9-4.6-12.1-6l-15.5-4.7-5.2 2z"/>
  <path class="cls-20" d="m55 55.4c0.1 1 0.1 2.1 1.5 2.3 0.9 0.2 1.9-1.1 1.9-1.1l-0.3-2.7-3.1 1.5z"/>
  <path class="cls-15" d="m48.5 73.4 2 0.7 1.9-0.7 8-2c1-0.3 1.2-2.5 1.2-3.7l-3.6-0.2v1.1l-5.3 2.5-2.3 0.5-1.3 1-0.6 0.8z"/>
  <path class="cls-1" d="m62.1 67.7-4.1-0.2 3.9 0.4 0.2-0.2z"/>
  <path class="cls-12" d="m61.1 78h1c0.4 0 0.8-0.6 0.9-1l1.1 0.1 0.9-0.2 0.1-1 0.5-0.3 1.5 0.5-0.4-1.2-0.6-0.8h-1.7c-1.3 0.3-2.4 0.9-2.2 2.3l-0.7 0.5-0.4 1.1z"/>
  <path class="cls-3" d="m62.1 78c1 0.5 3.5 1.6 4 2.6l3-0.5-4.5-3.5-1.6 0.4-0.9 1z"/>
  <path class="cls-24" d="m66.1 80.6c0.6 0.4 1.5 1.3 1.5 1.8 0.4 0.2 0.9 0.1 0.9 0.1l0.9-1.6-0.9-0.5-2.4 0.2z"/>
  <path class="cls-15" d="m40.9 66.1 1.5 0.9c0.2 0.1 0.1-0.4 0-0.5l-1-0.4h-0.5z"/>
  <path class="cls-21" d="m72.1 89.4c2.6 6.5 2.4 15.2 2.3 23.7h0.2c0-8.2 0.3-17-2.2-23.7h-0.3z"/>
  <path class="cls-22" d="m126.2 56.4c1.7 7 1.8 8.5-6.6 26.1"/>
  <path class="cls-2" d="m79.4 75.4"/>
  <path class="cls-11" d="m90.6 62.1 0.3 0.9c1 1 2.5 0.5 3.1 0 0.6-0.3 2.4-0.9 3.4-0.8l-0.3-2.8c-1.5 1.2-3 1.7-6.5 2.7z"/>
  <path class="cls-24" d="m104.6 51.9 1.4 0.6c0.6 0.5 0.7 0.5 0.2 2-0.1 2.1 3.4 2.4 3.2-0.6l-0.3-1.4 1.4-2.4-3.1 0.5-2.8 1.3z"/>
  <path class="cls-15" d="m108.1 49.9 3.3-0.5 0.3 2c-0.6 1.5-2.1 2-2.6 1.1v-1.1l-1-1.5z"/>
  <path class="cls-25" d="m110.1 50.9v1.5c0.3 0.6 1.4 1 1.8-0.5l-0.2-1.8-1.6 0.8z"/>
  <path class="cls-24" d="m101.6 62-0.2 1.4 6 2.7c1.2 0.6 2.3 0.4 2.7 0v-2.5l-6.2-1.5-1.8-2.2-0.5 0.1v2z"/>
  <path class="cls-24" d="m101.4 59.9 0.3-2c0-0.8 0.8-0.5 0.4 0.5l-0.5 1.6-0.2-0.1z"/>
  <path class="cls-24" d="m108.1 63.4 0.6 0.1c1.2 0.4 1.8 1.5 1.4 2.6 0.4 0 0.3-0.5 0-1.5l-1-1.1-1-0.1z"/>
  <path class="cls-24" d="m109.1 63.6 1 2.5v-1c0-0.7-0.5-1.5-1-1.5z"/>
  <path class="cls-9" d="m109.5 60.6 0.4 2.9h0.2l-0.5-2.9h-0.1z"/>
  <path class="cls-1" d="m105.1 51.9 0.5 0.6-5 2.5v-0.5l4.5-2.6z"/>
</svg>